<svg 
	viewBox="0 0 407.41406 90.38282" 
	xmlns:xlink="http://www.w3.org/1999/xlink" 
	xmlns="http://www.w3.org/2000/svg">
	<defs id="defs3090">
		<linearGradient id="linearGradient4290">
			<stop 
				style="stop-color:#295468;stop-opacity:1" 
				offset="0" 
				id="stop4292" />
			<stop 
				style="stop-color:#4287a8;stop-opacity:1" 
				offset="1" 
				id="stop4294" />
		</linearGradient>
		<linearGradient id="linearGradient3237">
			<stop 
				id="stop3239" 
				offset="0" 
				style="stop-color:#ffffff;stop-opacity:1;" />
			<stop 
				id="stop3241" 
				offset="1" 
				style="stop-color:#ffffff;stop-opacity:0;" />
		</linearGradient>
		<linearGradient id="linearGradient4102">
			<stop 
				id="stop4104" 
				offset="0" 
				style="stop-color:#ffffff;stop-opacity:1;" />
			<stop 
				id="stop4106" 
				offset="1" 
				style="stop-color:#ffffff;stop-opacity:0;" />
		</linearGradient>
		<linearGradient id="linearGradient3270">
			<stop 
				id="stop3272" 
				offset="0" 
				style="stop-color:#356d87;stop-opacity:1;" />
			<stop 
				id="stop3274" 
				offset="1" 
				style="stop-color:#5a9ebe;stop-opacity:1" />
		</linearGradient>
		<linearGradient 
			y2="112.49846" 
			x2="15" 
			y1="193.5" 
			x1="15" 
			gradientTransform="translate(0,245.97161)" 
			gradientUnits="userSpaceOnUse" 
			id="linearGradient4069" 
			xlink:href="#linearGradient3270" />
		<linearGradient 
			y2="112.49846" 
			x2="15" 
			y1="193.5" 
			x1="15" 
			gradientTransform="translate(0,365.47266)" 
			gradientUnits="userSpaceOnUse" 
			id="linearGradient4078" 
			xlink:href="#linearGradient3270" />
		<linearGradient 
			y2="112.49846" 
			x2="15" 
			y1="193.5" 
			x1="15" 
			gradientTransform="translate(0,365.47266)" 
			gradientUnits="userSpaceOnUse" 
			id="linearGradient4086" 
			xlink:href="#linearGradient3270" />
		<linearGradient 
			y2="112.49846" 
			x2="15" 
			y1="193.5" 
			x1="15" 
			gradientTransform="translate(0,365.47266)" 
			gradientUnits="userSpaceOnUse" 
			id="linearGradient4090" 
			xlink:href="#linearGradient3270" />
		<linearGradient 
			gradientUnits="userSpaceOnUse" 
			y2="558.84015" 
			x2="4.9497476" 
			y1="477.47369" 
			x1="4.9497476" 
			id="linearGradient4108" 
			xlink:href="#linearGradient4102" />
		<linearGradient 
			y2="188.00496" 
			x2="32.5" 
			y1="118.48382" 
			x1="32.5" 
			gradientTransform="translate(0,365.47266)" 
			gradientUnits="userSpaceOnUse" 
			id="linearGradient4122" 
			xlink:href="#linearGradient3270" />
		<linearGradient 
			gradientTransform="translate(2,2)" 
			y2="558.84015" 
			x2="4.9497476" 
			y1="477.47369" 
			x1="4.9497476" 
			gradientUnits="userSpaceOnUse" 
			id="linearGradient4128" 
			xlink:href="#linearGradient4102" />
		<filter 
			id="filter4146" 
			style="color-interpolation-filters:sRGB" 
			x="-0.010647384" 
			y="-0.052160723" 
			width="1.0212948" 
			height="1.1043214">
			<feGaussianBlur 
				id="feGaussianBlur4148" 
				stdDeviation="1.5588828" />
		</filter>
		<clipPath 
			id="clipPath3221" 
			clipPathUnits="userSpaceOnUse">
			<path 
				style="fill:url(#linearGradient3225);fill-opacity:1;stroke:url(#linearGradient3227);stroke-width:1" 
				d="m -1.75,477.4698 0,40.65625 0,40.65625 13.78125,0 13.78125,0 0,-13.78125 0,-13.78125 26.875,0 25.125,0 0,-53.75 -38.90625,0 z m 142.46875,0 0,47.25 7.03125,0 0,34.0625 29.75,0 0,-29.15625 4.25,0 0,29.15625 18.46875,0 9.40625,0 0,-34.0625 9.25,0 0,-47.25 -11.8125,0 -12.25,0 0,32.34375 -1.4375,0 -2.78125,0 0,-32.34375 -10.4375,0 -10.78125,0 0,32.34375 -2.1875,0 -2.0625,0 0,-32.34375 -12.53125,0 z m -58.6875,23.4375 0,41.625 29.53125,0 0,4.21875 -29.53125,0 0,12.03125 47.84375,0 1.25,0 0,-34.0625 5.375,0 0,-23.8125 -24.75,0 0,18.8125 -4.25,0 0,-18.8125 z m 141.09375,0 0,57.875 27.375,0 27.0625,0 0,-16.3125 -40.84375,0 0,-4.25 40.84375,0 0,-16.96875 -40.84375,0 0,-4.25 40.84375,0 0,-16.09375 -27.0625,0 z m 58.6875,0 0,57.875 42.4375,0 12,0 0,-16.3125 -40.5,0 0,-4.25 40.5,0 0,-16.96875 -40.5,0 0,-4.25 40.5,0 0,-16.09375 -12.09375,0 z m 58.6875,0 0,57.875 25.8125,0 0,-15.71875 4.21875,0 0,15.71875 12.34375,0 13.71875,0 0,-12.5625 -5.96875,0 0,-13.59375 -8.25,0 0,-4.25 8.25,0 0,-11.4375 5.96875,0 0,-1.625 0,-14.40625 -13.78125,0 -12.28125,0 0,16.6875 -4.21875,0 0,-16.6875 z m -314.625,1.3125 30.875,0 0,4.25 -30.875,0 z" 
				id="path3223" />
		</clipPath>
		<linearGradient 
			y2="188.00496" 
			x2="32.5" 
			y1="118.48382" 
			x1="32.5" 
			gradientTransform="translate(0,365.47266)" 
			gradientUnits="userSpaceOnUse" 
			id="linearGradient3225" 
			xlink:href="#linearGradient3270" />
		<linearGradient 
			y2="558.84015" 
			x2="4.9497476" 
			y1="477.47369" 
			x1="4.9497476" 
			gradientUnits="userSpaceOnUse" 
			id="linearGradient3227" 
			xlink:href="#linearGradient4102" />
		<linearGradient 
			gradientUnits="userSpaceOnUse" 
			y2="549.0625" 
			x2="41" 
			y1="491.9212" 
			x1="41" 
			id="linearGradient3243" 
			xlink:href="#linearGradient3237" />
		<linearGradient 
			y2="188.00496" 
			x2="32.5" 
			y1="146.02374" 
			x1="32.5" 
			gradientTransform="translate(0,365.47266)" 
			gradientUnits="userSpaceOnUse" 
			id="linearGradient3247" 
			xlink:href="#linearGradient3270" />
		<linearGradient 
			y2="519.95459" 
			x2="4.9497476" 
			y1="477.47369" 
			x1="4.9497476" 
			gradientUnits="userSpaceOnUse" 
			id="linearGradient3249" 
			xlink:href="#linearGradient4102" />
		<linearGradient 
			y2="112.49846" 
			x2="15" 
			y1="193.5" 
			x1="15" 
			gradientTransform="translate(0,365.47266)" 
			gradientUnits="userSpaceOnUse" 
			id="linearGradient3292" 
			xlink:href="#linearGradient4290" />
		<linearGradient 
			y2="558.84015" 
			x2="4.9497476" 
			y1="477.47369" 
			x1="4.9497476" 
			gradientTransform="translate(2,2)" 
			gradientUnits="userSpaceOnUse" 
			id="linearGradient3294" 
			xlink:href="#linearGradient4102" />
		<linearGradient 
			y2="188.00496" 
			x2="32.5" 
			y1="118.48382" 
			x1="32.5" 
			gradientTransform="translate(0,365.47266)" 
			gradientUnits="userSpaceOnUse" 
			id="linearGradient3296" 
			xlink:href="#linearGradient3270" />
		<linearGradient 
			y2="558.84015" 
			x2="4.9497476" 
			y1="477.47369" 
			x1="4.9497476" 
			gradientUnits="userSpaceOnUse" 
			id="linearGradient3298" 
			xlink:href="#linearGradient4102" />
		<linearGradient 
			y2="188.00496" 
			x2="32.5" 
			y1="146.02374" 
			x1="32.5" 
			gradientTransform="translate(0,365.47266)" 
			gradientUnits="userSpaceOnUse" 
			id="linearGradient3300" 
			xlink:href="#linearGradient3270" />
		<linearGradient 
			y2="519.95459" 
			x2="4.9497476" 
			y1="477.47369" 
			x1="4.9497476" 
			gradientUnits="userSpaceOnUse" 
			id="linearGradient3302" 
			xlink:href="#linearGradient4102" />
		<linearGradient 
			y2="549.0625" 
			x2="41" 
			y1="491.9212" 
			x1="41" 
			gradientUnits="userSpaceOnUse" 
			id="linearGradient3304" 
			xlink:href="#linearGradient3237" />
		<linearGradient 
			xlink:href="#linearGradient4102" 
			id="linearGradient3533" 
			gradientUnits="userSpaceOnUse" 
			x1="4.9497476" 
			y1="491.6098" 
			x2="4.9497476" 
			y2="532.98682" />
	</defs>
	<g 
		transform="translate(6.2851562,-472.93359)" 
		id="layer2">
		<path 
			d="m -1.75,473.93359 a 3.5358875,3.5358875 0 0 0 -3.5351562,3.53516 V 518.125 558.78125 A 3.5358875,3.5358875 0 0 0 -1.75,562.31641 H 12.03125 25.8125 a 3.5358875,3.5358875 0 0 0 3.535156,-3.53516 V 545 534.75391 H 52.6875 77.8125 a 3.5358875,3.5358875 0 0 0 0.683594,-0.28321 v 8.06055 a 3.5358875,3.5358875 0 0 0 0.873047,2.10937 3.5358875,3.5358875 0 0 0 -0.873047,2.10938 v 12.03125 a 3.5358875,3.5358875 0 0 0 3.535156,3.53516 h 47.84375 1.25 a 3.5358875,3.5358875 0 0 0 3.53516,-3.53516 V 528.25391 H 136.5 a 3.5358875,3.5358875 0 0 0 2.10937,-0.87305 3.5358875,3.5358875 0 0 0 2.10938,0.87305 h 3.49609 v 30.52734 a 3.5358875,3.5358875 0 0 0 3.53516,3.53516 h 29.75 a 3.5358875,3.5358875 0 0 0 2.125,-0.87891 3.5358875,3.5358875 0 0 0 2.125,0.87891 h 18.46875 9.40625 a 3.5358875,3.5358875 0 0 0 3.53516,-3.53516 v -30.52734 h 5.71484 a 3.5358875,3.5358875 0 0 0 0.71484,-0.29688 v 30.82422 a 3.5358875,3.5358875 0 0 0 3.53516,3.53516 h 27.375 27.0625 a 3.5358875,3.5358875 0 0 0 2.125,-0.87891 3.5358875,3.5358875 0 0 0 2.125,0.87891 h 42.4375 12 a 3.5358875,3.5358875 0 0 0 2.125,-0.87891 3.5358875,3.5358875 0 0 0 2.125,0.87891 h 25.8125 a 3.5358875,3.5358875 0 0 0 2.10937,-0.87305 3.5358875,3.5358875 0 0 0 2.10938,0.87305 h 12.34375 13.71875 a 3.5358875,3.5358875 0 0 0 3.53516,-3.53516 v -12.5625 a 3.5358875,3.5358875 0 0 0 -3.53516,-3.53516 h -2.43359 V 532.625 a 3.5358875,3.5358875 0 0 0 -0.87891,-2.125 3.5358875,3.5358875 0 0 0 0.87891,-2.125 v -7.90234 h 2.43359 a 3.5358875,3.5358875 0 0 0 3.53516,-3.53516 v -1.625 -14.40625 a 3.5358875,3.5358875 0 0 0 -3.53516,-3.53516 H 382.8125 370.53125 a 3.5358875,3.5358875 0 0 0 -2.10938,0.87305 3.5358875,3.5358875 0 0 0 -2.10937,-0.87305 H 340.5 a 3.5358875,3.5358875 0 0 0 -2.125,0.87891 3.5358875,3.5358875 0 0 0 -2.125,-0.87891 H 324.15625 281.8125 a 3.5358875,3.5358875 0 0 0 -2.125,0.87891 3.5358875,3.5358875 0 0 0 -2.125,-0.87891 H 250.5 223.125 a 3.5358875,3.5358875 0 0 0 -0.71484,0.29688 v -20.19922 a 3.5358875,3.5358875 0 0 0 -3.53516,-3.53516 h -11.8125 -12.25 a 3.5358875,3.5358875 0 0 0 -2.10938,0.87305 3.5358875,3.5358875 0 0 0 -2.10937,-0.87305 H 180.15625 169.375 a 3.5358875,3.5358875 0 0 0 -2.125,0.87891 3.5358875,3.5358875 0 0 0 -2.125,-0.87891 h -12.53125 -11.875 a 3.5358875,3.5358875 0 0 0 -3.53516,3.53516 V 497.6543 A 3.5358875,3.5358875 0 0 0 136.5,497.37109 H 111.75 A 3.5358875,3.5358875 0 0 0 109.625,498.25 3.5358875,3.5358875 0 0 0 107.5,497.37109 H 82.03125 a 3.5358875,3.5358875 0 0 0 -0.683594,0.28321 V 477.46875 A 3.5358875,3.5358875 0 0 0 77.8125,473.93359 H 38.90625 Z" 
			id="path4088" 
			style="fill:url(#linearGradient3292);fill-opacity:1;stroke:#000000;stroke-width:2" />
		<path 
			id="path4124" 
			d="m 0.25,479.4698 v 40.65625 40.65625 H 14.03125 27.8125 V 547.00105 533.2198 h 26.875 25.125 v -53.75 H 40.90625 Z m 142.46875,0 v 47.25 H 149.75 v 34.0625 h 29.75 v -29.15625 h 4.25 v 29.15625 h 18.46875 9.40625 v -34.0625 h 9.25 v -47.25 h -11.8125 -12.25 v 32.34375 h -1.4375 -2.78125 V 479.4698 H 182.15625 171.375 v 32.34375 h -2.1875 -2.0625 V 479.4698 h -12.53125 z m -58.6875,23.4375 v 41.625 h 29.53125 v 4.21875 H 84.03125 v 12.03125 h 47.84375 1.25 v -34.0625 h 5.375 v -23.8125 h -24.75 v 18.8125 h -4.25 v -18.8125 z m 141.09375,0 v 57.875 h 27.375 27.0625 v -16.3125 h -40.84375 v -4.25 h 40.84375 v -16.96875 h -40.84375 v -4.25 H 279.5625 V 502.9073 H 252.5 Z m 58.6875,0 v 57.875 h 42.4375 12 v -16.3125 h -40.5 v -4.25 h 40.5 v -16.96875 h -40.5 v -4.25 h 40.5 V 502.9073 h -12.09375 z m 58.6875,0 v 57.875 h 25.8125 v -15.71875 h 4.21875 V 560.7823 H 384.875 398.59375 V 548.2198 H 392.625 v -13.59375 h -8.25 v -4.25 h 8.25 v -11.4375 h 5.96875 v -1.625 -14.40625 H 384.8125 372.53125 v 16.6875 H 368.3125 V 502.9073 Z M 27.875,504.2198 H 58.75 v 4.25 H 27.875 Z" 
			style="opacity:0.316667;fill:#000000;fill-opacity:1;stroke:url(#linearGradient3294);stroke-width:1;filter:url(#filter4146)" />
		<path 
			style="fill:url(#linearGradient3296);fill-opacity:1;stroke:url(#linearGradient3533);stroke-width:1" 
			d="m -1.75,477.4698 v 40.65625 40.65625 H 12.03125 25.8125 V 545.00105 531.2198 h 26.875 25.125 v -53.75 H 38.90625 Z m 142.46875,0 v 47.25 H 147.75 v 34.0625 h 29.75 v -29.15625 h 4.25 v 29.15625 h 18.46875 9.40625 v -34.0625 h 9.25 v -47.25 h -11.8125 -12.25 v 32.34375 h -1.4375 -2.78125 V 477.4698 H 180.15625 169.375 v 32.34375 h -2.1875 -2.0625 V 477.4698 h -12.53125 z m -58.6875,23.4375 v 41.625 h 29.53125 v 4.21875 H 82.03125 v 12.03125 h 47.84375 1.25 v -34.0625 h 5.375 v -23.8125 h -24.75 v 18.8125 h -4.25 v -18.8125 z m 141.09375,0 v 57.875 h 27.375 27.0625 v -16.3125 h -40.84375 v -4.25 h 40.84375 v -16.96875 h -40.84375 v -4.25 H 277.5625 V 500.9073 H 250.5 Z m 58.6875,0 v 57.875 h 42.4375 12 v -16.3125 h -40.5 v -4.25 h 40.5 v -16.96875 h -40.5 v -4.25 h 40.5 V 500.9073 h -12.09375 z m 58.6875,0 v 57.875 h 25.8125 v -15.71875 h 4.21875 V 558.7823 H 382.875 396.59375 V 546.2198 H 390.625 v -13.59375 h -8.25 v -4.25 h 8.25 v -11.4375 h 5.96875 v -1.625 -14.40625 H 382.8125 370.53125 v 16.6875 H 366.3125 V 500.9073 Z M 25.875,502.2198 H 56.75 v 4.25 H 25.875 Z" 
			id="path4076" />
		<path 
			clip-path="url(#clipPath3221)" 
			id="path4152" 
			d="m -6.8708377,513.41483 c 26.4391327,9.04127 62.7986687,7.74009 86.0826667,2.32604 1.130299,0.82658 -1.579005,8.55878 -0.243691,9.07798 15.852053,6.1636 44.323142,7.83306 58.101162,-0.2968 1.27089,-0.7499 0.13204,-9.52928 1.17008,-10.63235 23.90291,7.59776 55.44046,8.92807 82.37794,0.35355 1.31257,1.45404 2.33265,12.3395 4.15606,12.83065 13.87207,3.73654 45.43837,4.40215 56.24091,-2.28065 16.73099,7.20319 42.77708,7.74996 56.98275,1.12132 14.86951,7.30748 42.00612,7.88175 53.38656,1.64856 5.3033,-5.3033 5.3033,-11.55211 5.3033,-11.55211 0,0 18.03122,-57.6292 7.77818,-57.27565 -10.25305,0.35355 -391.383605,0.35355 -395.6262452,0.35355 -4.2426407,0 -16.263456,0 -16.263456,0 z" 
			style="color:#000000;display:inline;overflow:visible;visibility:visible;opacity:0.5;fill:url(#linearGradient3304);fill-opacity:1;fill-rule:evenodd;stroke:none;stroke-width:1;marker:none;enable-background:accumulate" />
	</g>
</svg>
